<svg xmlns="http://www.w3.org/2000/svg" width="21.713" height="21.713" viewBox="0 0 21.713 21.713">
  <g id="behance-white" transform="translate(0 496)">
    <path id="Path_21" data-name="Path 21" d="M16.078-496H5.635A5.45,5.45,0,0,0,0-490.364v10.442a5.45,5.45,0,0,0,5.635,5.636H16.078a5.451,5.451,0,0,0,5.636-5.636v-10.442A5.451,5.451,0,0,0,16.078-496Zm4.235,16.078a4.052,4.052,0,0,1-4.235,4.235H5.635A4.051,4.051,0,0,1,1.4-479.922v-10.442A4.051,4.051,0,0,1,5.635-494.6H16.078a4.052,4.052,0,0,1,4.235,4.235Z" transform="translate(0 0)" fill="#fff"/>
    <path id="Path_22" data-name="Path 22" d="M101.687-337.265a2.252,2.252,0,0,0-1.2-.782,2.141,2.141,0,0,0,.9-.788,1.954,1.954,0,0,0,.3-1.04,2.128,2.128,0,0,0-.338-1.138,2.036,2.036,0,0,0-.934-.806,4,4,0,0,0-1.585-.263H95.6v8.618h3.286a5.742,5.742,0,0,0,1.39-.144,2.642,2.642,0,0,0,.943-.427,2.173,2.173,0,0,0,.632-.8,2.523,2.523,0,0,0,.256-1.126A2.093,2.093,0,0,0,101.687-337.265Zm-4.946-1.194v-2.6h1.722a4.942,4.942,0,0,1,1.311.12,1.04,1.04,0,0,1,.588.447,1.39,1.39,0,0,1,.206.756,1.234,1.234,0,0,1-.221.752,1.211,1.211,0,0,1-.656.429,4.158,4.158,0,0,1-1.087.1H96.74Zm4.016,3.225a1.262,1.262,0,0,1-.435.48,1.866,1.866,0,0,1-.658.235,4.917,4.917,0,0,1-.776.042H96.74v-2.964h1.993a4.221,4.221,0,0,1,1.261.144,1.3,1.3,0,0,1,.685.5,1.431,1.431,0,0,1,.247.838A1.5,1.5,0,0,1,100.756-335.234Z" transform="translate(-91.415 -147.182)" fill="#fff"/>
    <path id="Path_23" data-name="Path 23" d="M274.715-287.787a3.389,3.389,0,0,0-.794-2.4,2.664,2.664,0,0,0-2.046-.854,2.746,2.746,0,0,0-2.1.87,3.452,3.452,0,0,0-.811,2.446,3.3,3.3,0,0,0,.8,2.367,2.86,2.86,0,0,0,2.173.843,2.886,2.886,0,0,0,1.787-.529,2.668,2.668,0,0,0,.958-1.488l-1.093-.134a2.019,2.019,0,0,1-.653.976,1.615,1.615,0,0,1-.992.305,1.735,1.735,0,0,1-1.306-.546,2.408,2.408,0,0,1-.581-1.575h4.656C274.713-287.631,274.715-287.725,274.715-287.787Zm-4.6-.59h0a1.932,1.932,0,0,1,.548-1.3,1.686,1.686,0,0,1,1.226-.488,1.622,1.622,0,0,1,1.311.612,2.127,2.127,0,0,1,.4,1.182Z" transform="translate(-257.186 -195.987)" fill="#fff"/>
    <path id="Path_24" data-name="Path 24" d="M297.657-324.48h-3.536l-.009.87h3.551Z" transform="translate(-281.237 -164.011)" fill="#fff"/>
  </g>
</svg>
