<svg xmlns="http://www.w3.org/2000/svg" width="61.992" height="54.694" viewBox="0 0 61.992 54.694">
  <g id="Group_40" data-name="Group 40" transform="translate(0 374.086)">
    <path id="Path_12" data-name="Path 12" d="M122.645-179.772a1.019,1.019,0,0,1-.662-.244l-6.623-5.639a1.023,1.023,0,0,1-.36-.78,1.025,1.025,0,0,1,.36-.779l6.623-5.639a1.023,1.023,0,0,1,1.443.115,1.023,1.023,0,0,1-.116,1.443l-5.707,4.86,5.707,4.86a1.023,1.023,0,0,1,.116,1.443A1.021,1.021,0,0,1,122.645-179.772Z" transform="translate(-98.186 -154.527)" fill="#fff"/>
    <path id="Path_13" data-name="Path 13" d="M250.732-179.772a1.019,1.019,0,0,1-.78-.36,1.023,1.023,0,0,1,.115-1.443l5.707-4.86-5.707-4.86a1.023,1.023,0,0,1-.115-1.443,1.023,1.023,0,0,1,1.442-.115l6.623,5.639a1.023,1.023,0,0,1,.36.779,1.023,1.023,0,0,1-.36.78l-6.623,5.639A1.019,1.019,0,0,1,250.732-179.772Z" transform="translate(-213.199 -154.527)" fill="#fff"/>
    <path id="Path_14" data-name="Path 14" d="M189.979-199.418a1.041,1.041,0,0,1-.212-.022,1.024,1.024,0,0,1-.791-1.213l4.128-19.6a1.024,1.024,0,0,1,1.212-.79,1.023,1.023,0,0,1,.79,1.212l-4.127,19.6A1.024,1.024,0,0,1,189.979-199.418Z" transform="translate(-161.327 -130.651)" fill="#fff"/>
    <path id="Path_15" data-name="Path 15" d="M55.12-319.392H6.872A6.879,6.879,0,0,1,0-326.264v-40.95a6.88,6.88,0,0,1,6.872-6.872H55.12a6.88,6.88,0,0,1,6.872,6.872v40.95A6.879,6.879,0,0,1,55.12-319.392ZM6.872-372.039a4.831,4.831,0,0,0-4.825,4.825v40.95a4.83,4.83,0,0,0,4.825,4.825H55.12a4.83,4.83,0,0,0,4.825-4.825v-40.95a4.831,4.831,0,0,0-4.825-4.825Z" transform="translate(0 0)" fill="#fff"/>
    <path id="Path_16" data-name="Path 16" d="M60.968-273.949H1.023A1.023,1.023,0,0,1,0-274.973,1.024,1.024,0,0,1,1.023-276H60.968a1.024,1.024,0,0,1,1.023,1.023A1.023,1.023,0,0,1,60.968-273.949Z" transform="translate(0 -83.749)" fill="#fff"/>
    <path id="Path_17" data-name="Path 17" d="M100.688-333.319a3.243,3.243,0,0,1-3.239-3.239,3.243,3.243,0,0,1,3.239-3.239,3.243,3.243,0,0,1,3.239,3.239A3.243,3.243,0,0,1,100.688-333.319Zm0-4.431a1.193,1.193,0,0,0-1.192,1.192,1.193,1.193,0,0,0,1.192,1.192,1.193,1.193,0,0,0,1.192-1.192A1.193,1.193,0,0,0,100.688-337.75Z" transform="translate(-83.202 -29.276)" fill="#fff"/>
    <path id="Path_18" data-name="Path 18" d="M32.626-333.534a3.243,3.243,0,0,1-3.239-3.239,3.243,3.243,0,0,1,3.239-3.239,3.243,3.243,0,0,1,3.239,3.239A3.243,3.243,0,0,1,32.626-333.534Zm0-4.431a1.194,1.194,0,0,0-1.192,1.192,1.193,1.193,0,0,0,1.192,1.192,1.193,1.193,0,0,0,1.192-1.192A1.193,1.193,0,0,0,32.626-337.965Z" transform="translate(-25.09 -29.092)" fill="#fff"/>
    <path id="Path_19" data-name="Path 19" d="M168.754-333.1a3.242,3.242,0,0,1-3.238-3.239,3.242,3.242,0,0,1,3.238-3.238,3.242,3.242,0,0,1,3.239,3.238A3.243,3.243,0,0,1,168.754-333.1Zm0-4.431a1.193,1.193,0,0,0-1.191,1.192,1.193,1.193,0,0,0,1.191,1.192,1.193,1.193,0,0,0,1.192-1.192A1.193,1.193,0,0,0,168.754-337.536Z" transform="translate(-141.317 -29.459)" fill="#fff"/>
  </g>
</svg>
