<svg xmlns="http://www.w3.org/2000/svg" width="21.397" height="21.396" viewBox="0 0 21.397 21.396">
  <g id="dribbble-white" transform="translate(0 512)">
    <path id="Path_20" data-name="Path 20" d="M21.356-500.374c.026-.307.04-.616.04-.928a10.629,10.629,0,0,0-3.133-7.565A10.628,10.628,0,0,0,10.7-512a10.628,10.628,0,0,0-7.565,3.133A10.628,10.628,0,0,0,0-501.3a10.628,10.628,0,0,0,3.133,7.565A10.628,10.628,0,0,0,10.7-490.6a10.628,10.628,0,0,0,7.565-3.133A10.618,10.618,0,0,0,21.35-500.3.6.6,0,0,0,21.356-500.374Zm-1.214-.858a14.577,14.577,0,0,0-3.971-.548,14.6,14.6,0,0,0-2.688.249q-.207-.482-.426-.96-.3-.642-.613-1.273a25.8,25.8,0,0,0,5.676-3.374,9.4,9.4,0,0,1,2.023,5.834C20.143-501.278,20.142-501.255,20.142-501.231Zm-2.863-6.838a24.581,24.581,0,0,1-5.419,3.185,41.283,41.283,0,0,0-3.6-5.541,9.427,9.427,0,0,1,2.44-.32A9.412,9.412,0,0,1,17.278-508.07ZM7.006-509.994a39.892,39.892,0,0,1,3.677,5.577A24.685,24.685,0,0,1,2.17-502.9c-.26,0-.52,0-.779-.012A9.476,9.476,0,0,1,7.006-509.994ZM1.254-501.3c0-.121,0-.24.008-.36.3.01.606.016.909.016a25.83,25.83,0,0,0,8.882-1.563l.222-.083q.511,1.012.963,2.051a14.585,14.585,0,0,0-8.46,6.357A9.408,9.408,0,0,1,1.254-501.3ZM4.711-494a13.332,13.332,0,0,1,8.013-6.069,39.637,39.637,0,0,1,2.117,7.257,9.388,9.388,0,0,1-4.142.958A9.4,9.4,0,0,1,4.711-494Zm11.277.522a40.934,40.934,0,0,0-2.018-6.861,13.343,13.343,0,0,1,2.2-.183,13.315,13.315,0,0,1,3.875.573A9.457,9.457,0,0,1,15.988-493.481Z" transform="translate(0)" fill="#fff"/>
  </g>
</svg>
