<svg xmlns="http://www.w3.org/2000/svg" width="22.322" height="16.544" viewBox="0 0 22.322 16.544">
  <g id="email-white" transform="translate(0 379.483)">
    <path id="Path_25" data-name="Path 25" d="M20.484-379.483H1.838A1.84,1.84,0,0,0,0-377.645v12.868a1.84,1.84,0,0,0,1.838,1.838H20.484a1.841,1.841,0,0,0,1.838-1.838v-12.868A1.841,1.841,0,0,0,20.484-379.483Zm.263,14.706a.266.266,0,0,1-.263.263H1.838a.266.266,0,0,1-.263-.263v-10.107l9.055,5.323a.788.788,0,0,0,.791,0l9.325-5.343Zm0-11.937-9.711,5.564-9.459-5.561v-.933a.266.266,0,0,1,.263-.263H20.484a.266.266,0,0,1,.263.263Z" transform="translate(0 0)" fill="#fff"/>
  </g>
</svg>
