<svg xmlns="http://www.w3.org/2000/svg" width="61.014" height="61.699" viewBox="0 0 61.014 61.699">
  <g id="graphic-icon" transform="translate(0 510.999)">
    <path id="Path_1" data-name="Path 1" d="M59.91-503.261a1.254,1.254,0,0,0-1.192-.061l-9.8,4.616a10.647,10.647,0,0,0-6.077,8.788l-.253,3.131-5.078,8.434v-3.6c0-.012-.006-.022-.006-.034a1.248,1.248,0,0,0-.06-.365l-2.363-7.088,4.824-9.645a1.265,1.265,0,0,0-.127-1.324L32.2-510.522a1.31,1.31,0,0,0-1.843-.179,1.313,1.313,0,0,0-.179.179L22.588-500.41a1.265,1.265,0,0,0-.12,1.324l4.824,9.645-2.363,7.088a1.256,1.256,0,0,0-.06.365v5.079l-7.875-11.953c-.01-.014-.025-.022-.034-.034a1.277,1.277,0,0,0-.272-.276c-.024-.017-.046-.038-.071-.054s-.029-.025-.045-.034l-4.634-2.68-1.924-2.92-2.781-4.222a1.264,1.264,0,0,0-1.474-.5L.841-497.853a1.264,1.264,0,0,0-.768,1.614,1.232,1.232,0,0,0,.136.273l3.477,5.279L5.6-487.769l.632,5.317a.467.467,0,0,0,.013.05c.006.027.012.054.02.08a1.251,1.251,0,0,0,.149.379c.009.013.009.029.018.042s18.8,28.491,18.889,28.568a6.259,6.259,0,0,0,5.852,4.032,6.4,6.4,0,0,0,1.531-.187A6.28,6.28,0,0,0,36.6-452.36l16.812-27.89,2.654-1.68a10.726,10.726,0,0,0,3.421-3.5A10.616,10.616,0,0,0,61-491.406l-.493-10.823A1.265,1.265,0,0,0,59.91-503.261Zm-9.156,22.526L48.8-477.488l-6.5-3.918,1.958-3.248ZM27.4-461.581V-480.69h7.584v6.53Zm2.176-26.693h3.233l1.685,5.056h-6.6Zm1.616-8.849a1.264,1.264,0,0,1-1.264-1.264,1.264,1.264,0,0,1,1.264-1.264,1.264,1.264,0,0,1,1.264,1.264A1.264,1.264,0,0,1,31.19-497.123Zm0-10.533,6.1,8.138L32.937-490.8h-.483v-4.025a3.792,3.792,0,0,0,2.311-4.84,3.792,3.792,0,0,0-4.839-2.311,3.792,3.792,0,0,0-2.311,4.84,3.793,3.793,0,0,0,2.311,2.311v4.025h-.483l-4.357-8.716ZM13.535-488.1l-.372.245-4.656,3.067-.428-3.582a1.263,1.263,0,0,0-.2-.545l-1.39-2.111L8.6-492.413,9.991-490.3a1.27,1.27,0,0,0,.422.4ZM5.666-496.87l1.542,2.342L5.1-493.137l-1.9-2.869Zm6.746,12.539,3.161-2.087,9.3,14.1v13.787L9.246-482.243Zm22.025,30.658a3.792,3.792,0,0,1-5.2,1.318,3.792,3.792,0,0,1-1.318-5.2l.023-.038,9.545-15.83h.022v-.034L41-479.239l3.248,1.962,3.252,1.954Zm22.889-33.065a8.167,8.167,0,0,1-2.607,2.664l-2.245,1.422-3.665-2.207-3.666-2.207.209-2.654a8.121,8.121,0,0,1,4.633-6.7l8.09-3.809.161,3.523a1.25,1.25,0,0,0-.379.016l-3.062.759a7.694,7.694,0,0,0-5.688,5.814,1.263,1.263,0,0,0,.957,1.509,1.212,1.212,0,0,0,.277.032,1.265,1.265,0,0,0,1.232-.989,5.183,5.183,0,0,1,3.826-3.911l2.953-.732.133,2.908A8.1,8.1,0,0,1,57.327-486.738Z" transform="translate(0 0)" fill="#fff"/>
  </g>
</svg>
