<svg id="linkedin-white" xmlns="http://www.w3.org/2000/svg" width="17.254" height="17.254" viewBox="0 0 17.254 17.254">
  <path id="Path_26" data-name="Path 26" d="M192.246-338.612h0v-6.328c0-3.1-.666-5.48-4.285-5.48a3.757,3.757,0,0,0-3.384,1.86h-.05v-1.571H181.1v11.519h3.573v-5.7c0-1.5.285-2.954,2.145-2.954,1.832,0,1.86,1.714,1.86,3.05v5.608Z" transform="translate(-174.996 355.866)" fill="#fff"/>
  <path id="Path_27" data-name="Path 27" d="M8.448-330.3h3.577v-11.519H8.448Z" transform="translate(-8.163 347.559)" fill="#fff"/>
  <path id="Path_28" data-name="Path 28" d="M2.072-512A2.073,2.073,0,0,0,0-509.928a2.089,2.089,0,0,0,2.072,2.091,2.089,2.089,0,0,0,2.072-2.091A2.073,2.073,0,0,0,2.072-512Z" transform="translate(0 512)" fill="#fff"/>
</svg>
