<svg xmlns="http://www.w3.org/2000/svg" width="140.292" height="45.282" viewBox="0 0 140.292 45.282">
  <g id="logo" transform="translate(-1.672 66.868)">
    <path id="Path_30" data-name="Path 30" d="M5.058-42.352l13.764.043,2.306,4.568L1.672-37.8Z" transform="translate(0 -7.755)" fill="#fff" fill-rule="evenodd"/>
    <path id="Path_31" data-name="Path 31" d="M17.373-18.178l13.764.09,2.291,4.576-19.456-.127Z" transform="translate(-3.891 -15.402)" fill="#f06" fill-rule="evenodd"/>
    <path id="Path_32" data-name="Path 32" d="M49.87-42.807l-2.28,4.561H35.556l6.069,11.931-2.536,5.074L29.8-39.493a2.371,2.371,0,0,1,2.033-3.315Z" transform="translate(-8.835 -7.611)" fill="#fff" fill-rule="evenodd"/>
    <g id="Group_106" data-name="Group 106" transform="translate(34.964 -59.587)">
      <g id="Group_105" data-name="Group 105" transform="translate(0 0)">
        <text id="HAMIL" transform="translate(0 30)" fill="#fff" font-size="29" font-family="Audiowide-Regular, Audiowide"><tspan x="0" y="0">HAMIL</tspan></text>
      </g>
    </g>
    <path id="Path_33" data-name="Path 33" d="M37.578-66.867,35.3-62.306H23.264l6.068,11.932L26.8-45.3,17.512-63.554a2.371,2.371,0,0,1,2.033-3.315Z" transform="translate(-4.947 0)" fill="#f06" fill-rule="evenodd"/>
  </g>
</svg>
