<svg xmlns="http://www.w3.org/2000/svg" width="15.793" height="21.804" viewBox="0 0 15.793 21.804">
  <g id="map-white" transform="translate(-183 552.999)">
    <path id="Path_29" data-name="Path 29" d="M7.9-512A7.906,7.906,0,0,0,0-504.1c0,5.4,7.067,13.337,7.368,13.672a.711.711,0,0,0,1.058,0c.3-.335,7.368-8.268,7.368-13.672A7.906,7.906,0,0,0,7.9-512Zm0,11.87A3.977,3.977,0,0,1,3.924-504.1,3.977,3.977,0,0,1,7.9-508.075,3.977,3.977,0,0,1,11.87-504.1,3.977,3.977,0,0,1,7.9-500.129Z" transform="translate(183 -41)" fill="#fff"/>
  </g>
</svg>
