<svg xmlns="http://www.w3.org/2000/svg" width="63.652" height="56.165" viewBox="0 0 63.652 56.165">
  <g id="ui-icon" transform="translate(0 365.305)">
    <path id="Path_2" data-name="Path 2" d="M56.426-309.14H7.226A7.235,7.235,0,0,1,0-316.366v-41.713A7.235,7.235,0,0,1,7.226-365.3h49.2a7.235,7.235,0,0,1,7.226,7.226v41.713A7.235,7.235,0,0,1,56.426-309.14Zm-49.2-54.013a5.08,5.08,0,0,0-5.074,5.074v41.713a5.08,5.08,0,0,0,5.074,5.074h49.2a5.08,5.08,0,0,0,5.074-5.074v-41.713a5.08,5.08,0,0,0-5.074-5.074Z" fill="#fff"/>
    <path id="Path_3" data-name="Path 3" d="M251.812-118.719H234.9a1.076,1.076,0,0,1-1.076-1.076,1.076,1.076,0,0,1,1.076-1.076h16.912a1.077,1.077,0,0,1,1.076,1.076A1.076,1.076,0,0,1,251.812-118.719Z" transform="translate(-197.874 -206.853)" fill="#fff"/>
    <path id="Path_4" data-name="Path 4" d="M251.812-68.109H234.9a1.076,1.076,0,0,1-1.076-1.076,1.076,1.076,0,0,1,1.076-1.076h16.912a1.077,1.077,0,0,1,1.076,1.076A1.076,1.076,0,0,1,251.812-68.109Z" transform="translate(-197.874 -249.681)" fill="#fff"/>
    <path id="Path_5" data-name="Path 5" d="M251.812-219.937H234.9a1.076,1.076,0,0,1-1.076-1.076,1.076,1.076,0,0,1,1.076-1.076h16.912a1.077,1.077,0,0,1,1.076,1.076A1.076,1.076,0,0,1,251.812-219.937Z" transform="translate(-197.874 -121.196)" fill="#fff"/>
    <path id="Path_6" data-name="Path 6" d="M251.812-169.327H234.9a1.076,1.076,0,0,1-1.076-1.076,1.076,1.076,0,0,1,1.076-1.076h16.912a1.077,1.077,0,0,1,1.076,1.076A1.076,1.076,0,0,1,251.812-169.327Z" transform="translate(-197.874 -164.025)" fill="#fff"/>
    <path id="Path_7" data-name="Path 7" d="M62.576-283.422H1.076A1.076,1.076,0,0,1,0-284.5a1.076,1.076,0,0,1,1.076-1.076h61.5a1.076,1.076,0,0,1,1.076,1.076A1.076,1.076,0,0,1,62.576-283.422Z" transform="translate(0 -67.472)" fill="#fff"/>
    <path id="Path_8" data-name="Path 8" d="M82.478-333.388a3.353,3.353,0,0,1-3.349-3.349,3.353,3.353,0,0,1,3.349-3.349,3.352,3.352,0,0,1,3.349,3.349A3.352,3.352,0,0,1,82.478-333.388Zm0-4.545a1.2,1.2,0,0,0-1.2,1.2,1.2,1.2,0,0,0,1.2,1.2,1.2,1.2,0,0,0,1.2-1.2A1.2,1.2,0,0,0,82.478-337.934Z" transform="translate(-66.963 -21.342)" fill="#fff"/>
    <path id="Path_9" data-name="Path 9" d="M32.044-333.388a3.353,3.353,0,0,1-3.349-3.349,3.353,3.353,0,0,1,3.349-3.349,3.353,3.353,0,0,1,3.349,3.349A3.353,3.353,0,0,1,32.044-333.388Zm0-4.545a1.2,1.2,0,0,0-1.2,1.2,1.2,1.2,0,0,0,1.2,1.2,1.2,1.2,0,0,0,1.2-1.2A1.2,1.2,0,0,0,32.044-337.934Z" transform="translate(-24.283 -21.342)" fill="#fff"/>
    <path id="Path_10" data-name="Path 10" d="M132.915-333.388a3.352,3.352,0,0,1-3.349-3.349,3.352,3.352,0,0,1,3.349-3.349,3.353,3.353,0,0,1,3.349,3.349A3.353,3.353,0,0,1,132.915-333.388Zm0-4.545a1.2,1.2,0,0,0-1.2,1.2,1.2,1.2,0,0,0,1.2,1.2,1.2,1.2,0,0,0,1.2-1.2A1.2,1.2,0,0,0,132.915-337.934Z" transform="translate(-109.645 -21.342)" fill="#fff"/>
    <path id="Path_11" data-name="Path 11" d="M74.6-196.594H55.076A1.076,1.076,0,0,1,54-197.67v-23.343a1.076,1.076,0,0,1,1.076-1.076H74.6a1.076,1.076,0,0,1,1.076,1.076v23.343A1.076,1.076,0,0,1,74.6-196.594Zm-18.45-2.152H73.526v-21.191H56.152Z" transform="translate(-45.698 -121.196)" fill="#fff"/>
  </g>
</svg>
